<svg xmlns="http://www.w3.org/2000/svg" width="193.589" height="133.485" viewBox="0 0 193.589 133.485">
  <g id="Group_22" data-name="Group 22" transform="translate(-524.563 -187.704)">
    <g id="Group_1" data-name="Group 1">
      <text id="_0" data-name="0" transform="translate(533.563 305.718)" fill="#fff" font-size="5" font-family="Lato-Regular, Lato"><tspan x="-2.9" y="0">0</tspan></text>
    </g>
    <g id="Group_10" data-name="Group 10">
      <g id="Group_2" data-name="Group 2">
        <text id="_1" data-name="1" transform="translate(539.864 320.188)" fill="#fff" font-size="6" font-family="Lato-Regular, Lato"><tspan x="-1.74" y="0">1</tspan></text>
      </g>
      <g id="Group_3" data-name="Group 3">
        <text id="_2" data-name="2" transform="translate(564.486 320.188)" fill="#fff" font-size="6" font-family="Lato-Regular, Lato"><tspan x="-1.74" y="0">2</tspan></text>
      </g>
      <g id="Group_4" data-name="Group 4">
        <text id="_3" data-name="3" transform="translate(589.108 320.188)" fill="#fff" font-size="6" font-family="Lato-Regular, Lato"><tspan x="-1.74" y="0">3</tspan></text>
      </g>
      <g id="Group_5" data-name="Group 5">
        <text id="_4" data-name="4" transform="translate(613.73 320.188)" fill="#fff" font-size="6" font-family="Lato-Regular, Lato"><tspan x="-1.74" y="0">4</tspan></text>
      </g>
      <g id="Group_6" data-name="Group 6">
        <text id="_5" data-name="5" transform="translate(638.354 320.188)" fill="#fff" font-size="6" font-family="Lato-Regular, Lato"><tspan x="-1.74" y="0">5</tspan></text>
      </g>
      <g id="Group_7" data-name="Group 7">
        <text id="_6" data-name="6" transform="translate(662.976 320.188)" fill="#fff" font-size="6" font-family="Lato-Regular, Lato"><tspan x="-1.74" y="0">6</tspan></text>
      </g>
      <g id="Group_8" data-name="Group 8">
        <text id="_7" data-name="7" transform="translate(687.598 320.188)" fill="#fff" font-size="6" font-family="Lato-Regular, Lato"><tspan x="-1.74" y="0">7</tspan></text>
      </g>
      <g id="Group_9" data-name="Group 9">
        <text id="_8" data-name="8" transform="translate(711.71 320.188)" fill="#fff" font-size="6" font-family="Lato-Regular, Lato"><tspan x="-1.74" y="0">8</tspan></text>
      </g>
    </g>
    <g id="Group_11" data-name="Group 11">
      <text id="_10" data-name="10" transform="translate(533.563 294.531)" fill="#fff" font-size="5" font-family="Lato-Regular, Lato"><tspan x="-5.8" y="0">10</tspan></text>
    </g>
    <g id="Group_12" data-name="Group 12">
      <text id="_20" data-name="20" transform="translate(533.563 283.346)" fill="#fff" font-size="5" font-family="Lato-Regular, Lato"><tspan x="-5.8" y="0">20</tspan></text>
    </g>
    <g id="Group_13" data-name="Group 13">
      <text id="_30" data-name="30" transform="translate(533.563 272.159)" fill="#fff" font-size="5" font-family="Lato-Regular, Lato"><tspan x="-5.8" y="0">30</tspan></text>
    </g>
    <g id="Group_14" data-name="Group 14">
      <text id="_40" data-name="40" transform="translate(533.563 260.972)" fill="#fff" font-size="5" font-family="Lato-Regular, Lato"><tspan x="-5.8" y="0">40</tspan></text>
    </g>
    <g id="Group_15" data-name="Group 15">
      <text id="_50" data-name="50" transform="translate(533.563 249.786)" fill="#fff" font-size="5" font-family="Lato-Regular, Lato"><tspan x="-5.8" y="0">50</tspan></text>
    </g>
    <g id="Group_16" data-name="Group 16">
      <text id="_60" data-name="60" transform="translate(533.563 238.6)" fill="#fff" font-size="5" font-family="Lato-Regular, Lato"><tspan x="-5.8" y="0">60</tspan></text>
    </g>
    <g id="Group_17" data-name="Group 17">
      <text id="_70" data-name="70" transform="translate(533.563 227.414)" fill="#fff" font-size="5" font-family="Lato-Regular, Lato"><tspan x="-5.8" y="0">70</tspan></text>
    </g>
    <g id="Group_18" data-name="Group 18">
      <text id="_80" data-name="80" transform="translate(533.563 216.228)" fill="#fff" font-size="5" font-family="Lato-Regular, Lato"><tspan x="-5.8" y="0">80</tspan></text>
    </g>
    <g id="Group_19" data-name="Group 19">
      <text id="_90" data-name="90" transform="translate(533.563 205.041)" fill="#fff" font-size="5" font-family="Lato-Regular, Lato"><tspan x="-5.8" y="0">90</tspan></text>
    </g>
    <g id="Group_20" data-name="Group 20">
      <text id="_100" data-name="100" transform="translate(533.563 193.854)" fill="#fff" font-size="5" font-family="Lato-Regular, Lato"><tspan x="-8.7" y="0">100</tspan></text>
    </g>
    <path id="Path_1" data-name="Path 1" d="M539.17,187.7V306.6H718.151" fill="none" stroke="#8c88a2" stroke-miterlimit="10" stroke-width="0.5"/>
    <g id="Group_21" data-name="Group 21">
      <line id="Line_1" data-name="Line 1" y1="113.684" transform="translate(563.78 196.643)" fill="none" stroke="#6c6788" stroke-miterlimit="10" stroke-width="0.25"/>
      <line id="Line_2" data-name="Line 2" y2="113.684" transform="translate(588.39 196.643)" fill="none" stroke="#6c6788" stroke-miterlimit="10" stroke-width="0.25"/>
      <line id="Line_3" data-name="Line 3" y2="113.684" transform="translate(613 196.643)" fill="none" stroke="#6c6788" stroke-miterlimit="10" stroke-width="0.25"/>
      <line id="Line_4" data-name="Line 4" y2="113.684" transform="translate(637.61 196.643)" fill="none" stroke="#6c6788" stroke-miterlimit="10" stroke-width="0.25"/>
      <line id="Line_5" data-name="Line 5" y2="113.684" transform="translate(662.22 196.643)" fill="none" stroke="#6c6788" stroke-miterlimit="10" stroke-width="0.25"/>
      <line id="Line_6" data-name="Line 6" y2="113.684" transform="translate(686.83 196.643)" fill="none" stroke="#6c6788" stroke-miterlimit="10" stroke-width="0.25"/>
      <line id="Line_7" data-name="Line 7" y2="113.684" transform="translate(711.439 196.643)" fill="none" stroke="#6c6788" stroke-miterlimit="10" stroke-width="0.25"/>
    </g>
    <path id="Path_2" data-name="Path 2" d="M712.4,273.252,686.83,258.337l-24.61,15.506-24.61-20.619L613,275.234,588.39,229.79l-24.61,8.944-24.9-13.581" fill="none" stroke="aqua" stroke-miterlimit="10" stroke-width="1"/>
    <path id="Path_3" data-name="Path 3" d="M712.4,287.29,686.83,249.73l-24.61,11.129-24.61-14.375L613,244.165l-24.61,24.113-24.61-9.738-24.438,33.851" fill="none" stroke="#0080ff" stroke-miterlimit="10" stroke-width="1"/>
    <path id="Path_4" data-name="Path 4" d="M565.436,238.735a1.656,1.656,0,1,0-1.656,1.656A1.656,1.656,0,0,0,565.436,238.735Z" fill="#fff"/>
    <path id="Path_5" data-name="Path 5" d="M565.436,258.743a1.656,1.656,0,1,0-1.656,1.656A1.656,1.656,0,0,0,565.436,258.743Z" fill="#fff"/>
    <path id="Path_6" data-name="Path 6" d="M590.048,230a1.656,1.656,0,1,0-1.656,1.657A1.657,1.657,0,0,0,590.048,230Z" fill="#fff"/>
    <circle id="Ellipse_1" data-name="Ellipse 1" cx="1.656" cy="1.656" r="1.656" transform="translate(586.736 266.481)" fill="#fff"/>
    <path id="Path_7" data-name="Path 7" d="M614.659,274.994A1.656,1.656,0,1,0,613,276.651,1.656,1.656,0,0,0,614.659,274.994Z" fill="#fff"/>
    <path id="Path_8" data-name="Path 8" d="M614.659,244.277A1.656,1.656,0,1,0,613,245.933,1.655,1.655,0,0,0,614.659,244.277Z" fill="#fff"/>
    <path id="Path_9" data-name="Path 9" d="M639.365,253.389a1.656,1.656,0,1,0-1.656,1.656A1.656,1.656,0,0,0,639.365,253.389Z" fill="#fff"/>
    <path id="Path_10" data-name="Path 10" d="M639.365,246.625a1.656,1.656,0,1,0-1.656,1.657A1.657,1.657,0,0,0,639.365,246.625Z" fill="#fff"/>
    <path id="Path_11" data-name="Path 11" d="M663.883,273.585a1.656,1.656,0,1,0-1.657,1.657A1.657,1.657,0,0,0,663.883,273.585Z" fill="#fff"/>
    <path id="Path_12" data-name="Path 12" d="M663.883,260.81a1.656,1.656,0,1,0-1.657,1.656A1.656,1.656,0,0,0,663.883,260.81Z" fill="#fff"/>
    <path id="Path_13" data-name="Path 13" d="M688.588,258.555a1.656,1.656,0,1,0-1.656,1.656A1.656,1.656,0,0,0,688.588,258.555Z" fill="#fff"/>
    <path id="Path_14" data-name="Path 14" d="M688.588,249.913a1.656,1.656,0,1,0-1.656,1.656A1.655,1.655,0,0,0,688.588,249.913Z" fill="#fff"/>
  </g>
</svg>
